<?xml version="1.0" encoding="UTF-8" standalone="no"?>
<!-- Created with Inkscape (http://www.inkscape.org/) -->

<svg
   xmlns:dc="http://purl.org/dc/elements/1.1/"
   xmlns:cc="http://creativecommons.org/ns#"
   xmlns:rdf="http://www.w3.org/1999/02/22-rdf-syntax-ns#"
   xmlns:svg="http://www.w3.org/2000/svg"
   xmlns="http://www.w3.org/2000/svg"
   version="1.1"
   width="48"
   height="48"
   viewBox="0 0 48 48"
   id="svg2">
  <metadata
     id="metadata12">
    <rdf:RDF>
      <cc:Work
         rdf:about="">
        <dc:format>image/svg+xml</dc:format>
        <dc:type
           rdf:resource="http://purl.org/dc/dcmitype/StillImage" />
        <dc:title></dc:title>
      </cc:Work>
    </rdf:RDF>
  </metadata>
  <defs
     id="defs10" />
  <path
     d="M 63.254237,-8.3389831 H 111.25424 V 39.661017 H 63.254237 z"
     id="path6"
     style="fill:none" />
  <path
     d="m 24,0.5 0,4.46875 C 13.496059,4.96875 4.96875,13.496059 4.96875,24 c 0,1.997147 0.3272318,3.912262 0.90625,5.71875 l 7.3125,-2.875 0.125,-0.0625 C 13.080496,25.897469 13,24.956581 13,24 13,17.923729 17.923729,13 24,13 L 24,18.90625 34.875,9.71875 24,0.5 z m 18.15625,17.84375 -7.5,2.9375 C 34.882613,22.153416 35,23.056093 35,24 35,30.076271 30.076271,35 24,35 L 24,29.09375 13.125,38.28125 24,47.5 24,43.03125 c 10.503941,0 19.03125,-8.527309 19.03125,-19.03125 0,-1.965999 -0.320338,-3.869689 -0.875,-5.65625 z"
     id="path3009"
     style="fill:#000000;fill-opacity:1;stroke:none" />
</svg>
