<?xml version="1.0" encoding="utf-8"?>
<!-- Generator: Adobe Illustrator 21.1.0, SVG Export Plug-In . SVG Version: 6.00 Build 0)  -->
<svg version="1.1" id="Layer_1" xmlns="http://www.w3.org/2000/svg" xmlns:xlink="http://www.w3.org/1999/xlink" x="0px" y="0px"
	 width="425.2px" height="425.2px" viewBox="0 0 425.2 425.2" style="enable-background:new 0 0 425.2 425.2;" xml:space="preserve"
	>
<style type="text/css">
	.st0{fill:#D8A619;}
</style>
<title>Bugman logo</title>
<path class="st0" d="M46.7,143.4c2.8,23.1,13.1,43.3,27.7,61.2c15.1,18.6,33.7,31.5,56.7,36.5L109.8,260h-0.2v0.1l-14,12.6
	l-8.5,77.8c-1.4,13.3,10,24.5,23.3,22.7l80.9-10.9l92.3-78.8c0,0,24.5-21.5,28.9-26.6c10.4-12.4,11.6-26.9,9.3-41.5
	c15.2,0.4,66,2.9,56.6-39.5c-4.5-20-12.8-37.5-28.9-50.1l22.4-8.7c7.5-2.9,11.1-11.3,8.2-18.8c-2.9-7.5-11.3-11.1-18.8-8.2l0,0
	l-68.5,26.7c-1.5,0.6-2.9,1.4-4.1,2.5c-1.6,1-3.1,2-4.5,3.1c-11.1,8.8-17.2,20.6-20.8,35.7c-1.6-1.5-3.6-2.8-4.8-4.5
	c-1.4-1.9-2.1-4.3-3.2-6.4c-19.5-36.1-49.1-61.6-85.5-79.7c-15.6-7.7-32-12.8-49.5-13.4c-9-0.3-15.6,5.7-15.9,14s5.8,14.4,14.8,15.1
	c5.3,0.3,10.5,1.1,15.7,2.4c28.5,7.7,51.9,23.7,72.3,44.5c8.9,8.9,16.4,19.2,22.1,30.4l-15.2,13.1c-2.1-3.4-4.2-7.2-6.6-10.7
	c-2.4-3.8-5.1-7.4-8.1-10.8c-31.6-35.1-71.9-51.6-118.3-54.1C64.8,96.9,52.4,106,48.5,121C46.5,128.3,45.9,135.9,46.7,143.4z
	 M303.9,158.3c0-10.7,9.2-19.2,20.1-18c8.3,0.9,15,7.6,15.9,15.9c1.2,10.9-7.3,20.1-17.9,20.1C312,176.4,303.9,168.3,303.9,158.3
	C303.9,158.3,303.9,158.3,303.9,158.3L303.9,158.3z M151.5,261.7l23.9-21.2c14.5,0.6,28.2,6.8,38.3,17.3c11.8,12,14.5,24.6,16.8,33
	l-27.7,23.6C195.4,289.4,176.2,269.7,151.5,261.7z M176.9,334.9l-30.3,4.1c-2.9-9.1-10-23-26.3-26l2.8-25.8c1.5-0.1,3-0.2,4.5-0.2
	C154.3,287,176.2,308.2,176.9,334.9z M86.9,127.2c36.1,4,67.9,17.1,91.8,45.5c4.5,5.3,7.4,12,11,18c2.3,3.7,1.2,7.1-1.1,10.3
	c-5.7,8-14.3,10.6-23.3,12.1c-4.3,0.8-8.6,0.9-13,1.3c-22.4-0.2-40-10-54.1-26.6c-11.6-13.7-19.8-29.3-22.8-47.2
	c-0.1-0.3-0.1-0.6-0.2-1C74,128.5,76,126,86.9,127.2L86.9,127.2z"/>
</svg>
