<?xml version="1.0" encoding="UTF-8" standalone="no"?>
<svg
   xmlns:dc="http://purl.org/dc/elements/1.1/"
   xmlns:cc="http://creativecommons.org/ns#"
   xmlns:rdf="http://www.w3.org/1999/02/22-rdf-syntax-ns#"
   xmlns:svg="http://www.w3.org/2000/svg"
   xmlns="http://www.w3.org/2000/svg"
   version="1.1"
   viewBox="0 0 300.52 340.12"
   height="119.99mm"
   width="106.02mm"
   data-name="Layer 1"
   id="Layer_1">
  <metadata
     id="metadata17">
    <rdf:RDF>
      <cc:Work
         rdf:about="">
        <dc:format>image/svg+xml</dc:format>
        <dc:type
           rdf:resource="http://purl.org/dc/dcmitype/StillImage" />
        <dc:title>Bugman logo</dc:title>
      </cc:Work>
    </rdf:RDF>
  </metadata>
  <defs
     id="defs15" />
  <title
     id="title2">Bugman logo</title>
  <path
     id="path4"
     d="m 66.364293,-0.02929609 c 15.749998,0.46 30.450196,5.07967819 44.420187,11.99967909 32.64001,16.279999 59.20015,39.129642 76.76015,71.599644 1,1.899999 1.65911,4.060368 2.90911,5.790369 1.25,1.730001 2.88047,2.729485 4.35047,4.079478 3.31,-13.579998 8.7502,-24.159215 18.7202,-32.079215 15.09,-12 36.34999,-12.001128 54.22999,-0.161129 17.34,11.490001 26.36044,28.360856 30.28044,48.20085 a 161.82,161.82 0 0 1 2.44915,22.80994 c 0.46,8.73 -4.41975,13.6404 -13.09975,13.5304 -13.27,-0.16 -26.53958,-0.58085 -40.17958,-0.90085 2.13,13.11 1.06016,26.20978 -8.30984,37.29978 -9.37,11.09 -22.00056,14.74029 -36.58056,13.93029 0.82,2.68 1.53064,5.00033 2.22064,7.29033 2.95,9.89 -2.91076,16.88008 -13.14076,15.25008 A 209.39,209.39 0 0 1 128.95392,198.60991 171.66,171.66 0 0 1 90.184937,171.84939 9.2600002,9.2600002 0 0 0 85.293958,169.54966 C 60.293956,166.73965 40.723733,154.36954 25.163735,135.23954 12.063731,119.09954 2.794535,101.09957 0.30453427,80.259563 A 55.42,55.42 0 0 1 1.8748047,60.169774 C 5.384808,46.729773 16.503627,38.54 31.223633,39.33 72.883628,41.55 109.05488,56.389733 137.42489,87.889731 a 87.860002,87.860002 0 0 1 7.24931,9.720444 c 2.17,3.210005 4.06023,6.610135 5.90023,9.650135 L 164.19419,95.530151 A 108.12,108.12 0 0 0 144.32411,68.249635 C 126.01412,49.579635 104.98474,35.170219 79.43474,28.250219 A 78.320002,78.320002 0 0 0 65.394591,26.099886 c -8.070001,-0.65 -13.590175,-6.089695 -13.290176,-13.559695 0.3,-7.4699999 6.179872,-12.80948709 14.259878,-12.56948709 z M 263.0055,13.108536 a 13,13 0 0 1 13.08803,9.88157 c 1.7,6.54 -1.88987,13.749547 -8.59987,15.459547 -18.59,4.76 -37.28967,9.070399 -55.94967,13.530399 a 13.45,13.45 0 0 1 -2.18988,0.21972 13.11,13.11 0 0 1 -13.41029,-11.560237 12.81,12.81 0 0 1 9.80101,-13.999136 c 12.86,-3.3 25.78988,-6.310158 38.68988,-9.420157 5.33,-1.290001 10.65006,-2.620154 16.00006,-3.760153 a 13,13 0 0 1 2.57073,-0.351553 z M 33.072213,65.501662 c -6.898007,-0.150664 -8.136682,2.68565 -7.077935,11.41815 0,0.290003 0.09941,0.569588 0.149411,0.849585 2.760001,16.099998 10.069935,30.049973 20.499935,42.389983 12.660006,14.99999 28.500241,23.74051 48.58024,23.93051 3.880006,-0.37001 7.810556,-0.50038 11.630556,-1.17038 8.08,-1.42 15.82034,-3.68987 20.92033,-10.90986 2.00001,-2.89001 2.999,-5.90025 0.999,-9.25025 -3.29,-5.42 -5.8794,-11.40902 -9.9094,-16.18901 C 97.354347,81.070381 68.794138,69.330425 36.384139,65.740425 c -1.226254,-0.135 -2.326497,-0.21724 -3.311926,-0.238763 z M 254.66051,77.026745 c -7.81493,0.148271 -13.564,6.876903 -12.36588,15.592839 1.49,10.729996 11.04929,18.300396 22.89929,18.150396 8.87,-0.12 13.56018,-5.89021 11.50018,-14.620218 -2.23,-9.469996 -8.17027,-15.780477 -17.51027,-18.500474 -1.55782,-0.45313 -3.07611,-0.65 -4.52332,-0.622543 z M 77.924528,199.07864 c 2.368706,0.0211 4.899769,0.8748 7.209767,2.64105 a 210.93,210.93 0 0 0 40.829965,24.45052 c 23.33999,10.61 47.91047,16.92934 73.25047,20.12934 7.47,0.95 10.29021,4.00032 11.27021,11.39032 0.54999,4.14999 1.42946,8.25982 1.99946,12.40982 1,7.61 -4.74067,13.49036 -12.27067,12.20036 -46.8,-8.00001 -90.05964,-24.90056 -129.179642,-52.00056 -3.220001,-2.24 -5.089859,-4.99988 -5.24986,-9.11988 1.110001,-5.21999 1.870315,-10.54971 3.420314,-15.63971 1.275003,-4.21875 4.772129,-6.49641 8.719986,-6.46126 z m 3.344145,70.36189 c 1.682505,-0.0425 3.419901,0.53996 5.164902,1.49996 a 338.85,338.85 0 0 0 80.101365,31.15932 376,376 0 0 0 78.33921,11.18085 c 5.49,0.2 11.00026,0.44968 16.47026,0.67967 7.43,0.32 13.00014,5.86014 13.00014,13.00014 a 13.1,13.1 0 0 1 -13.00014,13.07924 c -8.38,0.22 -16.76948,0.0498 -25.15948,0.0498 -28.79,-0.87 -57.48999,-2.40945 -85.58999,-9.44945 -20.09,-5 -39.07045,-12.44991 -55.230455,-25.86991 A 83.680004,83.680004 0 0 1 76.034931,281.58962 c -2.000001,-3.49 -2.650114,-6.81915 0.399889,-9.89915 1.525002,-1.54 3.151356,-2.20744 4.833853,-2.24994 z"
     style="fill:#d8a619;stroke-width:1" />
</svg>
